<svg xmlns="http://www.w3.org/2000/svg" viewBox="0 0 512 512">
  <defs>
    <linearGradient id="g1" x1="0" y1="0" x2="1" y2="1">
      <stop offset="0" stop-color="#0f5bd7"/>
      <stop offset="1" stop-color="#12a594"/>
    </linearGradient>
  </defs>
  <rect width="512" height="512" rx="112" fill="#071a35"/>
  <path d="M256 72 404 158v196L256 440 108 354V158L256 72Z" fill="url(#g1)" opacity=".2"/>
  <path d="m256 94 126 73-126 73-126-73 126-73Zm-140 94 126 73v145l-126-73V188Zm280 0v145l-126 73V261l126-73Z" fill="url(#g1)"/>
  <path d="M176 307h34v47h-34zm63-51h34v98h-34zm63-33h34v131h-34z" fill="#fff" opacity=".94"/>
</svg>
